<?xml version="1.0" standalone="no"?>
<!DOCTYPE svg PUBLIC "-//W3C//DTD SVG 20010904//EN"
 "http://www.w3.org/TR/2001/REC-SVG-20010904/DTD/svg10.dtd">
<svg version="1.0" xmlns="http://www.w3.org/2000/svg"
 width="512.000000pt" height="512.000000pt" viewBox="0 0 512.000000 512.000000"
 preserveAspectRatio="xMidYMid meet">

<g transform="translate(0.000000,512.000000) scale(0.100000,-0.100000)"
fill="#000000" stroke="none">
<path d="M526 5073 c-123 -121 -225 -337 -214 -455 2 -21 2 -38 0 -38 -2 0
-18 11 -35 24 -52 39 -133 75 -203 92 -37 8 -69 13 -72 10 -3 -3 2 -45 12 -93
24 -128 71 -217 153 -293 72 -66 212 -143 281 -155 l40 -6 4 -75 c2 -41 0 -74
-4 -74 -3 0 -16 16 -28 35 -68 110 -255 205 -403 205 l-59 0 7 -42 c11 -74 45
-169 79 -222 69 -108 214 -204 344 -229 l62 -12 0 -84 0 -84 -39 54 c-76 105
-224 184 -387 204 -29 4 -54 2 -58 -3 -12 -19 16 -140 49 -210 64 -135 204
-242 364 -278 l71 -16 0 -81 0 -82 -33 40 c-103 127 -241 195 -393 195 l-63 0
5 -37 c30 -228 172 -383 406 -442 l73 -19 2 -78 c2 -77 2 -78 -14 -54 -79 117
-260 210 -410 210 -71 0 -69 5 -49 -91 29 -135 112 -253 230 -331 62 -40 167
-78 217 -78 l29 0 0 -165 c0 -156 -11 -214 -23 -124 -18 133 -166 223 -285
173 -47 -19 -88 -58 -113 -106 -18 -36 -19 -74 -19 -1113 0 -719 3 -1083 10
-1096 28 -52 -126 -49 2500 -49 2626 0 2472 -3 2500 49 13 26 14 2159 1 2194
-16 40 -73 99 -116 118 -121 55 -270 -31 -291 -167 -3 -24 -10 -44 -15 -44 -6
0 -8 69 -7 162 l3 162 56 12 c96 19 203 76 274 147 84 84 128 173 149 305 l6
32 -63 0 c-139 0 -275 -58 -367 -157 l-60 -64 0 75 0 74 69 12 c221 37 383
210 415 443 l5 37 -63 0 c-160 0 -316 -84 -408 -220 -17 -24 -17 -23 -17 68
l-1 92 28 0 c15 0 51 7 81 15 177 47 304 174 355 355 19 68 24 135 11 135
-165 -3 -343 -88 -430 -206 l-45 -61 0 89 0 88 61 12 c68 13 183 65 247 112
91 67 158 192 177 329 l7 52 -59 0 c-69 0 -139 -18 -220 -54 -62 -29 -111 -71
-174 -149 l-39 -49 0 76 c0 53 4 78 13 80 143 43 225 88 315 171 64 59 112
138 135 225 19 69 30 160 20 160 -62 -1 -252 -78 -282 -114 -22 -26 -26 -19
-27 52 -3 126 -88 294 -213 417 l-61 59 -50 -49 c-130 -128 -215 -308 -208
-440 2 -40 -1 -61 -7 -57 -5 3 -30 20 -55 38 -54 39 -128 69 -199 82 l-51 9 0
-48 c0 -117 46 -230 128 -314 84 -85 210 -160 315 -186 l47 -11 0 -80 0 -80
-38 49 c-100 125 -231 196 -410 219 l-52 7 0 -29 c0 -52 28 -161 53 -210 68
-134 208 -233 382 -268 l60 -13 5 -86 c3 -48 3 -87 0 -86 -3 0 -19 21 -36 47
-39 60 -128 123 -229 163 -79 31 -212 61 -229 51 -12 -7 2 -113 25 -179 56
-165 194 -277 394 -320 l74 -16 3 -89 c2 -48 1 -88 -2 -88 -3 0 -13 12 -22 28
-70 117 -270 222 -426 222 l-55 0 7 -61 c25 -219 185 -373 428 -412 l67 -11 3
-88 c2 -48 0 -88 -3 -88 -3 0 -20 20 -37 43 -56 79 -180 159 -292 190 -78 22
-157 30 -165 17 -13 -21 18 -152 51 -219 44 -87 97 -148 176 -199 67 -43 178
-82 234 -82 l34 0 0 -165 0 -165 -260 0 -260 0 0 184 0 185 -76 81 -77 81 -78
-83 -79 -83 0 -182 0 -183 -150 0 -150 0 0 186 0 186 -77 80 -78 80 -72 -77
-73 -77 -2 -161 c-1 -89 -2 -173 -3 -187 l-1 -25 -152 -3 -152 -3 0 187 0 187
-35 39 -36 39 3 146 3 146 64 13 c154 32 290 128 354 252 33 65 67 175 67 220
0 27 -20 28 -128 7 -112 -23 -214 -76 -289 -151 l-63 -62 0 78 0 78 47 7 c166
25 313 127 383 266 24 46 60 179 60 219 0 27 -164 -7 -265 -55 -83 -39 -145
-86 -191 -145 l-34 -43 0 85 0 86 45 7 c244 36 415 211 439 448 7 67 10 66
-112 41 -120 -25 -214 -76 -306 -167 -43 -43 -76 -71 -72 -62 3 9 6 44 6 78
l0 62 79 24 c102 30 165 66 244 141 97 90 157 221 157 342 l0 48 -32 -6 c-64
-12 -167 -52 -211 -82 l-46 -30 -6 56 c-10 84 -32 159 -71 233 -39 73 -125
182 -173 217 l-32 23 -47 -41 c-133 -117 -218 -280 -224 -428 -2 -59 -9 -74
-23 -52 -16 26 -224 110 -271 110 -8 0 -14 -10 -14 -25 0 -49 32 -179 55 -224
69 -136 207 -242 379 -291 l61 -17 2 -84 3 -84 -22 30 c-48 66 -145 151 -208
182 -76 37 -171 63 -229 63 -40 0 -41 -1 -41 -33 0 -135 101 -304 232 -388 55
-36 199 -89 241 -89 l27 0 0 -84 0 -84 -72 73 c-106 105 -221 158 -385 178
-49 6 -51 2 -33 -94 39 -203 223 -370 448 -405 l42 -7 -1 -86 c0 -83 -1 -85
-16 -61 -77 117 -278 220 -430 220 -61 0 -61 0 -38 -99 46 -196 215 -354 418
-393 l67 -13 0 -144 0 -144 -35 -38 -35 -39 0 -190 0 -190 -155 0 -155 0 0
191 0 192 -75 76 -76 76 -74 -80 -74 -80 -1 -187 0 -188 -145 0 -145 0 0 180
0 179 -76 86 c-42 47 -80 85 -84 85 -5 0 -43 -39 -85 -86 l-76 -85 3 -180 3
-179 -267 0 -268 0 0 165 0 165 28 0 c43 0 131 27 199 60 148 73 260 230 271
379 6 83 10 81 -116 55 -141 -28 -270 -106 -344 -208 l-28 -39 0 85 0 85 69
12 c76 14 181 60 249 110 95 70 172 218 172 332 0 49 0 49 -32 49 -155 -1
-351 -101 -424 -217 l-29 -46 -3 88 c-2 48 1 91 5 95 4 3 37 12 73 19 217 43
390 221 407 420 l6 74 -59 -7 c-167 -21 -333 -115 -402 -228 -9 -16 -20 -28
-24 -28 -4 0 -8 38 -8 85 l0 84 38 6 c227 37 400 187 441 383 13 61 14 119 4
125 -5 2 -45 -2 -90 -8 -112 -17 -219 -71 -299 -151 -34 -34 -65 -71 -69 -83
-15 -47 -26 -18 -23 60 l3 82 65 16 c154 41 317 163 372 281 28 59 48 149 48
213 l0 40 -37 -6 c-57 -8 -147 -44 -204 -83 -28 -19 -52 -34 -54 -34 -1 0 -5
35 -8 78 -6 89 -44 184 -116 291 -41 60 -144 171 -159 171 -4 0 -29 -21 -56
-47z m667 -3470 c4 -137 7 -488 7 -780 l0 -533 -150 0 -150 0 0 780 0 780 143
0 144 0 6 -247z m607 -533 l0 -780 -150 0 -150 0 0 780 0 780 150 0 150 0 0
-780z m610 0 l0 -780 -154 0 -155 0 0 780 -1 780 155 0 155 0 0 -780z m608 -2
l4 -778 -156 0 -156 0 0 773 c0 426 3 777 7 781 4 3 72 5 152 4 l146 -3 3
-777z m610 682 c2 -52 0 -402 -3 -777 l-7 -683 -149 0 -149 0 0 780 0 781 153
-3 152 -3 3 -95z m600 -682 l2 -778 -150 0 -150 0 0 780 0 781 148 -3 147 -3
3 -777z"/>
</g>
</svg>
